<svg id="visual" viewBox="0 0 900 600" width="900" height="600" xmlns="http://www.w3.org/2000/svg" xmlns:xlink="http://www.w3.org/1999/xlink" version="1.1"><rect x="0" y="0" width="900" height="600" fill="#faebd7"></rect><path d="M625 0L773 0L773 75L706 75L706 150L732 150L732 225L630 225L630 300L698 300L698 375L797 375L797 450L684 450L684 525L781 525L781 600L0 600L0 525L0 525L0 450L0 450L0 375L0 375L0 300L0 300L0 225L0 225L0 150L0 150L0 75L0 75L0 0L0 0Z" fill="#e3604f"></path><path d="M703 0L584 0L584 75L694 75L694 150L685 150L685 225L602 225L602 300L628 300L628 375L665 375L665 450L584 450L584 525L539 525L539 600L0 600L0 525L0 525L0 450L0 450L0 375L0 375L0 300L0 300L0 225L0 225L0 150L0 150L0 75L0 75L0 0L0 0Z" fill="#f27465"></path><path d="M634 0L631 0L631 75L507 75L507 150L497 150L497 225L560 225L560 300L619 300L619 375L624 375L624 450L564 450L564 525L539 525L539 600L0 600L0 525L0 525L0 450L0 450L0 375L0 375L0 300L0 300L0 225L0 225L0 150L0 150L0 75L0 75L0 0L0 0Z" fill="#fc8a7d"></path><path d="M539 0L514 0L514 75L549 75L549 150L521 150L521 225L496 225L496 300L465 300L465 375L444 375L444 450L549 450L549 525L546 525L546 600L0 600L0 525L0 525L0 450L0 450L0 375L0 375L0 300L0 300L0 225L0 225L0 150L0 150L0 75L0 75L0 0L0 0Z" fill="#ffa398"></path><path d="M392 0L405 0L405 75L333 75L333 150L424 150L424 225L332 225L332 300L359 300L359 375L376 375L376 450L353 450L353 525L365 525L365 600L0 600L0 525L0 525L0 450L0 450L0 375L0 375L0 300L0 300L0 225L0 225L0 150L0 150L0 75L0 75L0 0L0 0Z" fill="#ffa89d"></path><path d="M301 0L338 0L338 75L373 75L373 150L357 150L357 225L314 225L314 300L374 300L374 375L265 375L265 450L353 450L353 525L360 525L360 600L0 600L0 525L0 525L0 450L0 450L0 375L0 375L0 300L0 300L0 225L0 225L0 150L0 150L0 75L0 75L0 0L0 0Z" fill="#ffa398"></path><path d="M279 0L228 0L228 75L267 75L267 150L294 150L294 225L197 225L197 300L234 300L234 375L266 375L266 450L186 450L186 525L238 525L238 600L0 600L0 525L0 525L0 450L0 450L0 375L0 375L0 300L0 300L0 225L0 225L0 150L0 150L0 75L0 75L0 0L0 0Z" fill="#fc8a7d"></path><path d="M135 0L176 0L176 75L152 75L152 150L193 150L193 225L167 225L167 300L192 300L192 375L167 375L167 450L122 450L122 525L176 525L176 600L0 600L0 525L0 525L0 450L0 450L0 375L0 375L0 300L0 300L0 225L0 225L0 150L0 150L0 75L0 75L0 0L0 0Z" fill="#f27465"></path><path d="M108 0L86 0L86 75L78 75L78 150L60 150L60 225L102 225L102 300L123 300L123 375L125 375L125 450L104 450L104 525L99 525L99 600L0 600L0 525L0 525L0 450L0 450L0 375L0 375L0 300L0 300L0 225L0 225L0 150L0 150L0 75L0 75L0 0L0 0Z" fill="#e3604f"></path></svg>