<svg id="visual" viewBox="0 0 900 600" width="900" height="600" xmlns="http://www.w3.org/2000/svg" xmlns:xlink="http://www.w3.org/1999/xlink" version="1.1"><rect x="0" y="0" width="900" height="600" fill="#faebd7"></rect><path d="M0 359L113 359L113 393L225 393L225 354L338 354L338 362L450 362L450 395L563 395L563 408L675 408L675 339L788 339L788 354L900 354L900 382L900 601L900 601L788 601L788 601L675 601L675 601L563 601L563 601L450 601L450 601L338 601L338 601L225 601L225 601L113 601L113 601L0 601Z" fill="#ffa89d"></path><path d="M0 452L113 452L113 395L225 395L225 435L338 435L338 435L450 435L450 398L563 398L563 414L675 414L675 431L788 431L788 436L900 436L900 447L900 601L900 601L788 601L788 601L675 601L675 601L563 601L563 601L450 601L450 601L338 601L338 601L225 601L225 601L113 601L113 601L0 601Z" fill="#fd9487"></path><path d="M0 450L113 450L113 445L225 445L225 453L338 453L338 486L450 486L450 459L563 459L563 453L675 453L675 481L788 481L788 459L900 459L900 465L900 601L900 601L788 601L788 601L675 601L675 601L563 601L563 601L450 601L450 601L338 601L338 601L225 601L225 601L113 601L113 601L0 601Z" fill="#fa8072"></path><path d="M0 508L113 508L113 496L225 496L225 481L338 481L338 491L450 491L450 497L563 497L563 521L675 521L675 524L788 524L788 522L900 522L900 488L900 601L900 601L788 601L788 601L675 601L675 601L563 601L563 601L450 601L450 601L338 601L338 601L225 601L225 601L113 601L113 601L0 601Z" fill="#ef7060"></path><path d="M0 528L113 528L113 569L225 569L225 538L338 538L338 537L450 537L450 551L563 551L563 538L675 538L675 546L788 546L788 566L900 566L900 547L900 601L900 601L788 601L788 601L675 601L675 601L563 601L563 601L450 601L450 601L338 601L338 601L225 601L225 601L113 601L113 601L0 601Z" fill="#e3604f"></path></svg>