<svg id="visual" viewBox="0 0 900 600" width="900" height="600" xmlns="http://www.w3.org/2000/svg" xmlns:xlink="http://www.w3.org/1999/xlink" version="1.1"><rect x="0" y="0" width="900" height="600" fill="#faebd7"></rect><path d="M498 0L517 0L517 75L603 75L603 150L546 150L546 225L465 225L465 300L583 300L583 375L451 375L451 450L506 450L506 525L535 525L535 600L0 600L0 525L0 525L0 450L0 450L0 375L0 375L0 300L0 300L0 225L0 225L0 150L0 150L0 75L0 75L0 0L0 0Z" fill="#e3604f"></path><path d="M466 0L404 0L404 75L444 75L444 150L421 150L421 225L454 225L454 300L428 300L428 375L441 375L441 450L435 450L435 525L382 525L382 600L0 600L0 525L0 525L0 450L0 450L0 375L0 375L0 300L0 300L0 225L0 225L0 150L0 150L0 75L0 75L0 0L0 0Z" fill="#fc8a7d"></path><path d="M277 0L364 0L364 75L340 75L340 150L345 150L345 225L292 225L292 300L291 300L291 375L310 375L310 450L322 450L322 525L266 525L266 600L0 600L0 525L0 525L0 450L0 450L0 375L0 375L0 300L0 300L0 225L0 225L0 150L0 150L0 75L0 75L0 0L0 0Z" fill="#ffa89d"></path><path d="M245 0L237 0L237 75L253 75L253 150L184 150L184 225L162 225L162 300L166 300L166 375L266 375L266 450L227 450L227 525L292 525L292 600L0 600L0 525L0 525L0 450L0 450L0 375L0 375L0 300L0 300L0 225L0 225L0 150L0 150L0 75L0 75L0 0L0 0Z" fill="#fc8a7d"></path><path d="M115 0L157 0L157 75L88 75L88 150L69 150L69 225L127 225L127 300L117 300L117 375L179 375L179 450L96 450L96 525L67 525L67 600L0 600L0 525L0 525L0 450L0 450L0 375L0 375L0 300L0 300L0 225L0 225L0 150L0 150L0 75L0 75L0 0L0 0Z" fill="#e3604f"></path></svg>