<svg id="visual" viewBox="0 0 900 600" width="900" height="600" xmlns="http://www.w3.org/2000/svg" xmlns:xlink="http://www.w3.org/1999/xlink" version="1.1"><rect x="0" y="0" width="900" height="600" fill="#faebd7"></rect><path d="M0 578L25 573.3C50 568.7 100 559.3 150 561C200 562.7 250 575.3 300 575.2C350 575 400 562 450 556.5C500 551 550 553 600 558.7C650 564.3 700 573.7 750 579C800 584.3 850 585.7 875 586.3L900 587L900 601L875 601C850 601 800 601 750 601C700 601 650 601 600 601C550 601 500 601 450 601C400 601 350 601 300 601C250 601 200 601 150 601C100 601 50 601 25 601L0 601Z" fill="#fa8072" stroke-linecap="round" stroke-linejoin="miter"></path></svg>