<svg id="visual" viewBox="0 0 900 600" width="900" height="600" xmlns="http://www.w3.org/2000/svg" xmlns:xlink="http://www.w3.org/1999/xlink" version="1.1"><rect x="0" y="0" width="900" height="600" fill="#ffffff"></rect><path d="M0 21L30 20.2C60 19.3 120 17.7 180 17.5C240 17.3 300 18.7 360 22.5C420 26.3 480 32.7 540 34.8C600 37 660 35 720 30.7C780 26.3 840 19.7 870 16.3L900 13L900 0L870 0C840 0 780 0 720 0C660 0 600 0 540 0C480 0 420 0 360 0C300 0 240 0 180 0C120 0 60 0 30 0L0 0Z" fill="#fa8072" stroke-linecap="round" stroke-linejoin="miter"></path></svg>