<svg id="visual" viewBox="0 0 900 600" width="900" height="600" xmlns="http://www.w3.org/2000/svg" xmlns:xlink="http://www.w3.org/1999/xlink" version="1.1"><rect x="0" y="0" width="900" height="600" fill="#002233"></rect><path d="M0 69L18.8 69.5C37.7 70 75.3 71 112.8 65.3C150.3 59.7 187.7 47.3 225.2 43.2C262.7 39 300.3 43 337.8 44.2C375.3 45.3 412.7 43.7 450.2 42.5C487.7 41.3 525.3 40.7 562.8 44.3C600.3 48 637.7 56 675.2 56.5C712.7 57 750.3 50 787.8 49.5C825.3 49 862.7 55 881.3 58L900 61L900 0L881.3 0C862.7 0 825.3 0 787.8 0C750.3 0 712.7 0 675.2 0C637.7 0 600.3 0 562.8 0C525.3 0 487.7 0 450.2 0C412.7 0 375.3 0 337.8 0C300.3 0 262.7 0 225.2 0C187.7 0 150.3 0 112.8 0C75.3 0 37.7 0 18.8 0L0 0Z" fill="#0066FF" stroke-linecap="round" stroke-linejoin="miter"></path></svg>