<svg id="visual" viewBox="0 0 900 600" width="900" height="600" xmlns="http://www.w3.org/2000/svg" xmlns:xlink="http://www.w3.org/1999/xlink" version="1.1"><rect x="0" y="0" width="900" height="600" fill="#00ffff"></rect><path d="M0 33L25 33.8C50 34.7 100 36.3 150 34.3C200 32.3 250 26.7 300 23.3C350 20 400 19 450 19.8C500 20.7 550 23.3 600 26.7C650 30 700 34 750 33C800 32 850 26 875 23L900 20L900 0L875 0C850 0 800 0 750 0C700 0 650 0 600 0C550 0 500 0 450 0C400 0 350 0 300 0C250 0 200 0 150 0C100 0 50 0 25 0L0 0Z" fill="#ffffff" stroke-linecap="round" stroke-linejoin="miter"></path></svg>