<svg id="visual" viewBox="0 0 900 600" width="900" height="600" xmlns="http://www.w3.org/2000/svg" xmlns:xlink="http://www.w3.org/1999/xlink" version="1.1"><rect x="0" y="0" width="900" height="600" fill="#ffffff"></rect><path d="M0 36L25 32.8C50 29.7 100 23.3 150 21.7C200 20 250 23 300 21C350 19 400 12 450 12C500 12 550 19 600 19.5C650 20 700 14 750 14.5C800 15 850 22 875 25.5L900 29L900 0L875 0C850 0 800 0 750 0C700 0 650 0 600 0C550 0 500 0 450 0C400 0 350 0 300 0C250 0 200 0 150 0C100 0 50 0 25 0L0 0Z" fill="#fa8072" stroke-linecap="round" stroke-linejoin="miter"></path></svg>