<svg id="visual" viewBox="0 0 900 600" width="900" height="600" xmlns="http://www.w3.org/2000/svg" xmlns:xlink="http://www.w3.org/1999/xlink" version="1.1"><rect x="0" y="0" width="900" height="600" fill="#fa8072"></rect><path d="M0 36L21.5 31.8C43 27.7 86 19.3 128.8 15C171.7 10.7 214.3 10.3 257.2 14C300 17.7 343 25.3 385.8 31.5C428.7 37.7 471.3 42.3 514.2 40.8C557 39.3 600 31.7 642.8 28.3C685.7 25 728.3 26 771.2 24.5C814 23 857 19 878.5 17L900 15L900 0L878.5 0C857 0 814 0 771.2 0C728.3 0 685.7 0 642.8 0C600 0 557 0 514.2 0C471.3 0 428.7 0 385.8 0C343 0 300 0 257.2 0C214.3 0 171.7 0 128.8 0C86 0 43 0 21.5 0L0 0Z" fill="#faebd7" stroke-linecap="round" stroke-linejoin="miter"></path></svg>