<svg id="visual" viewBox="0 0 900 600" width="900" height="600" xmlns="http://www.w3.org/2000/svg" xmlns:xlink="http://www.w3.org/1999/xlink" version="1.1"><rect x="0" y="0" width="900" height="600" fill="#00ffff"></rect><path d="M0 37L18.8 45.5C37.7 54 75.3 71 112.8 73C150.3 75 187.7 62 225.2 55.5C262.7 49 300.3 49 337.8 54.8C375.3 60.7 412.7 72.3 450.2 75.5C487.7 78.7 525.3 73.3 562.8 68.2C600.3 63 637.7 58 675.2 56.3C712.7 54.7 750.3 56.3 787.8 64.3C825.3 72.3 862.7 86.7 881.3 93.8L900 101L900 0L881.3 0C862.7 0 825.3 0 787.8 0C750.3 0 712.7 0 675.2 0C637.7 0 600.3 0 562.8 0C525.3 0 487.7 0 450.2 0C412.7 0 375.3 0 337.8 0C300.3 0 262.7 0 225.2 0C187.7 0 150.3 0 112.8 0C75.3 0 37.7 0 18.8 0L0 0Z" fill="#ffffff" stroke-linecap="round" stroke-linejoin="miter"></path></svg>